<svg width="86" height="24" viewBox="0 0 86 24" fill="none" xmlns="http://www.w3.org/2000/svg">
<path d="M3.94697 23.7608H0.131566C0.0438552 23.7608 0 23.706 0 23.5963L0.0657828 0.457249C0.0657828 0.369539 0.109638 0.325684 0.197348 0.325684H21.0395C22.2565 0.325684 23.3748 0.621706 24.3944 1.21375C25.4141 1.8058 26.2254 2.60067 26.8284 3.59838C27.4424 4.59608 27.7494 5.72535 27.7494 6.98619C27.7494 7.80847 27.6233 8.55401 27.3711 9.2228C27.1189 9.89159 26.8229 10.4562 26.483 10.9167C26.1541 11.3772 25.8526 11.7171 25.5785 11.9363C26.7955 13.2849 27.404 14.8692 27.404 16.6891L27.4369 23.5963C27.4369 23.706 27.3821 23.7608 27.2724 23.7608H23.457C23.3693 23.7608 23.3255 23.7279 23.3255 23.6621V16.6891C23.3255 15.8778 23.0404 15.1761 22.4703 14.5841C21.9002 13.9921 21.1985 13.696 20.3652 13.696H4.11142L4.07853 23.5963C4.07853 23.706 4.03468 23.7608 3.94697 23.7608ZM21.0395 4.35488H4.11142V9.65039H21.0395C21.7302 9.65039 22.3442 9.39274 22.8814 8.87744C23.4296 8.36214 23.7037 7.73173 23.7037 6.98619C23.7037 6.27354 23.4406 5.65957 22.9143 5.14427C22.3881 4.61801 21.7631 4.35488 21.0395 4.35488Z" fill="white"/>
<path d="M29.1472 23.5963L33.3245 0.457249C33.3464 0.369539 33.4012 0.325684 33.4889 0.325684H38.3733C38.461 0.325684 38.5158 0.369539 38.5377 0.457249L42.5505 23.5963C42.5614 23.706 42.5176 23.7608 42.4189 23.7608H38.6857C38.5761 23.7608 38.5158 23.706 38.5048 23.5963L38.143 21.1295H33.5547L33.1929 23.5963C33.1819 23.706 33.1271 23.7608 33.0284 23.7608H29.2788C29.1911 23.7608 29.1472 23.706 29.1472 23.5963ZM35.742 8.0716L34.229 17.5279H37.4688L36.0873 8.0716L35.89 6.82173L35.742 8.0716Z" fill="white"/>
<path d="M51.8423 23.7608H48.0433C47.9447 23.7608 47.8953 23.706 47.8953 23.5963V4.38777H43.5208C43.4111 4.38777 43.3563 4.33295 43.3563 4.22331L43.3892 0.457249C43.3892 0.369539 43.4331 0.325684 43.5208 0.325684H56.3155C56.4361 0.325684 56.4964 0.369539 56.4964 0.457249V4.22331C56.4964 4.33295 56.4526 4.38777 56.3649 4.38777H51.941L51.9739 23.5963C51.9739 23.706 51.93 23.7608 51.8423 23.7608Z" fill="white"/>
<path d="M69.1596 23.7608H58.2726C58.1849 23.7608 58.141 23.706 58.141 23.5963L58.1739 0.457249C58.1739 0.369539 58.2177 0.325684 58.3055 0.325684H69.1267C69.2144 0.325684 69.2583 0.380503 69.2583 0.49014V4.2562C69.2583 4.34391 69.2144 4.38777 69.1267 4.38777H62.2195V9.65039H69.1267C69.2144 9.65039 69.2583 9.69424 69.2583 9.78195L69.2912 13.5974C69.2912 13.6851 69.2473 13.7289 69.1596 13.7289H62.2195V19.6165H69.1596C69.2473 19.6165 69.2912 19.6713 69.2912 19.7809V23.6292C69.2912 23.7169 69.2473 23.7608 69.1596 23.7608Z" fill="white"/>
<path d="M76.2313 23.7608H72.4159C72.3281 23.7608 72.2843 23.706 72.2843 23.5963L72.3501 0.457249C72.3501 0.369539 72.3939 0.325684 72.4816 0.325684H79.2902C80.5071 0.325684 81.6254 0.621706 82.6451 1.21375C83.6647 1.8058 84.476 2.60067 85.079 3.59838C85.693 4.59608 86 5.72535 86 6.98619C86 7.80847 85.8739 8.55401 85.6217 9.2228C85.3696 9.89159 85.0736 10.4562 84.7337 10.9167C84.4048 11.3772 84.1033 11.7171 83.8292 11.9363C85.0462 13.2849 85.6546 14.8692 85.6546 16.6891L85.6875 23.5963C85.6875 23.706 85.6327 23.7608 85.5231 23.7608H81.7077C81.62 23.7608 81.5761 23.7279 81.5761 23.6621V16.6891C81.5761 15.8778 81.291 15.1761 80.7209 14.5841C80.1508 13.9921 79.4491 13.696 78.6159 13.696H76.3957L76.3628 23.5963C76.3628 23.706 76.319 23.7608 76.2313 23.7608ZM79.2902 4.35488H76.3957V9.65039H79.2902C79.9809 9.65039 80.5948 9.39274 81.1321 8.87744C81.6803 8.36214 81.9544 7.73173 81.9544 6.98619C81.9544 6.27354 81.6912 5.65957 81.165 5.14427C80.6387 4.61801 80.0138 4.35488 79.2902 4.35488Z" fill="white"/>
</svg>
