<svg width="128" height="36" viewBox="0 0 128 36" fill="none" xmlns="http://www.w3.org/2000/svg">
<path d="M5.87455 35.4402H0.195818C0.0652728 35.4402 0 35.3586 0 35.1954L0.0979092 0.755877C0.0979092 0.625331 0.163182 0.560059 0.293728 0.560059H31.3146C33.126 0.560059 34.7904 1.00065 36.308 1.88183C37.8256 2.76302 39.0331 3.94609 39.9306 5.43104C40.8445 6.916 41.3014 8.59677 41.3014 10.4734C41.3014 11.6972 41.1137 12.8069 40.7384 13.8023C40.3631 14.7977 39.9225 15.6381 39.4166 16.3234C38.9271 17.0088 38.4783 17.5147 38.0704 17.841C39.8817 19.8482 40.7874 22.2062 40.7874 24.915L40.8363 35.1954C40.8363 35.3586 40.7547 35.4402 40.5915 35.4402H34.9128C34.7823 35.4402 34.717 35.3913 34.717 35.2934V24.915C34.717 23.7074 34.2927 22.6631 33.4442 21.7819C32.5956 20.9007 31.5513 20.4601 30.3111 20.4601H6.11933L6.07037 35.1954C6.07037 35.3586 6.0051 35.4402 5.87455 35.4402ZM31.3146 6.557H6.11933V14.4387H31.3146C32.3427 14.4387 33.2565 14.0552 34.0561 13.2883C34.872 12.5213 35.28 11.583 35.28 10.4734C35.28 9.41268 34.8883 8.49886 34.105 7.73191C33.3218 6.94864 32.3916 6.557 31.3146 6.557Z" fill="white"/>
<path d="M43.382 35.1954L49.5992 0.755877C49.6318 0.625331 49.7134 0.560059 49.844 0.560059H57.1137C57.2443 0.560059 57.3259 0.625331 57.3585 0.755877L63.331 35.1954C63.3473 35.3586 63.282 35.4402 63.1351 35.4402H57.5788C57.4156 35.4402 57.3259 35.3586 57.3095 35.1954L56.771 31.5239H49.9419L49.4034 35.1954C49.3871 35.3586 49.3055 35.4402 49.1586 35.4402H43.5778C43.4472 35.4402 43.382 35.3586 43.382 35.1954ZM53.1973 12.0889L50.9454 26.1633H55.7675L53.7114 12.0889L53.4176 10.2286L53.1973 12.0889Z" fill="white"/>
<path d="M77.1606 35.4402H71.5064C71.3595 35.4402 71.2861 35.3586 71.2861 35.1954V6.60595H64.7751C64.6119 6.60595 64.5303 6.52436 64.5303 6.36118L64.5793 0.755877C64.5793 0.625331 64.6446 0.560059 64.7751 0.560059H83.8185C83.998 0.560059 84.0877 0.625331 84.0877 0.755877V6.36118C84.0877 6.52436 84.0224 6.60595 83.8919 6.60595H77.3075L77.3565 35.1954C77.3565 35.3586 77.2912 35.4402 77.1606 35.4402Z" fill="white"/>
<path d="M102.935 35.4402H86.7313C86.6007 35.4402 86.5354 35.3586 86.5354 35.1954L86.5844 0.755877C86.5844 0.625331 86.6497 0.560059 86.7802 0.560059H102.886C103.017 0.560059 103.082 0.64165 103.082 0.804832V6.41013C103.082 6.54068 103.017 6.60595 102.886 6.60595H92.6058V14.4387H102.886C103.017 14.4387 103.082 14.504 103.082 14.6345L103.131 20.3132C103.131 20.4438 103.066 20.5091 102.935 20.5091H92.6058V29.2719H102.935C103.066 29.2719 103.131 29.3535 103.131 29.5167V35.2444C103.131 35.3749 103.066 35.4402 102.935 35.4402Z" fill="white"/>
<path d="M113.46 35.4402H107.782C107.651 35.4402 107.586 35.3586 107.586 35.1954L107.684 0.755877C107.684 0.625331 107.749 0.560059 107.88 0.560059H118.013C119.825 0.560059 121.489 1.00065 123.007 1.88183C124.524 2.76302 125.732 3.94609 126.629 5.43104C127.543 6.916 128 8.59677 128 10.4734C128 11.6972 127.812 12.8069 127.437 13.8023C127.062 14.7977 126.621 15.6381 126.115 16.3234C125.626 17.0088 125.177 17.5147 124.769 17.841C126.58 19.8482 127.486 22.2062 127.486 24.915L127.535 35.1954C127.535 35.3586 127.453 35.4402 127.29 35.4402H121.611C121.481 35.4402 121.416 35.3913 121.416 35.2934V24.915C121.416 23.7074 120.991 22.6631 120.143 21.7819C119.294 20.9007 118.25 20.4601 117.01 20.4601H113.705L113.656 35.1954C113.656 35.3586 113.591 35.4402 113.46 35.4402ZM118.013 6.557H113.705V14.4387H118.013C119.041 14.4387 119.955 14.0552 120.755 13.2883C121.571 12.5213 121.979 11.583 121.979 10.4734C121.979 9.41268 121.587 8.49886 120.804 7.73191C120.02 6.94864 119.09 6.557 118.013 6.557Z" fill="white"/>
</svg>
